# xmcd
#
# Track frame offsets: 
#        150
#        11048
#        24170
#        38907
#        53021
#        66705
#        79436
#        94083
#        103901
#        120319
#        137275
#        146672
#        167992
#        186665
#        198029
#        213685
#        227652
#
# Disc length: 3220 seconds
#
# Revision: 0
# Processed by: cddbd v1.4PL0 Copyright (c) Steve Scherf et al.
# Submitted via: ExactAudioCopy v0.90a11
#
DISCID=f40c9211
DTITLE=The Bee Gees - Best Of
DYEAR=1900
DGENRE=
TTITLE0=Massachusetts
TTITLE1=Holiday
TTITLE2=Words
TTITLE3=I've Gotta Get A Message To You
TTITLE4=To Love Somebody
TTITLE5=First Of May
TTITLE6=World
TTITLE7=New York Mining Disaster 1941
TTITLE8=Every Christian Lion Hearted Man Will Show You
TTITLE9=I Can't See Nobody
TTITLE10=Cucumber Castle
TTITLE11=Lamplight
TTITLE12=One Million Years
TTITLE13=August October
TTITLE14=Don't Forget To Remember Me
TTITLE15=Run Me
TTITLE16=Saved By The Bell
EXTD=
EXTT0=
EXTT1=
EXTT2=
EXTT3=
EXTT4=
EXTT5=
EXTT6=
EXTT7=
EXTT8=
EXTT9=
EXTT10=
EXTT11=
EXTT12=
EXTT13=
EXTT14=
EXTT15=
EXTT16=
PLAYORDER=
